{"accessors" : [{"bufferView" : 0, "byteOffset" : 0, "componentType" : 5123, "count" : 30222, "type" : "SCALAR", "max" : [30221], "min" : [0]}, {"bufferView" : 1, "byteOffset" : 0, "componentType" : 5126, "count" : 30222, "type" : "VEC3", "max" : [2.185694694519043, 10.361719131469727, 2.338505744934082], "min" : [-2.365769386291504, -2.051286220550537, -2.3414978981018066], "name" : "POSITION"}, {"bufferView" : 1, "byteOffset" : 12, "componentType" : 5126, "count" : 30222, "type" : "VEC3", "max" : [1.0000044107437134, 1.0000044107437134, 1.0000044107437134], "min" : [-1.0000044107437134, -1.0000044107437134, -1.0000044107437134], "name" : "NORMAL"}, {"bufferView" : 1, "byteOffset" : 24, "componentType" : 5126, "count" : 30222, "type" : "VEC2", "max" : [0.9909611344337463, 0.9909610748291016], "min" : [0.009038916788995266, 0.025351345539093018], "name" : "TEXCOORD_0"}], "asset" : {"generator" : "Aspose.3D 24.4.1", "version" : "2.0"}, "buffers" : [{"uri" : "data:application/octet-stream;base64,", "byteLength" : 1027556}], "bufferViews" : [{"buffer" : 0, "byteOffset" : 0, "byteLength" : 60444, "target" : 34963}, {"buffer" : 0, "byteOffset" : 60448, "byteLength" : 967104, "byteStride" : 32, "target" : 34962}], "images" : [{"uri" : "D:\\Textures\\Container\\Container_Material_Normal.png"}, {"uri" : "D:\\Textures\\Container\\Container_Material_BaseColor.png"}], "materials" : [{"name" : "Material", "pbrMetallicRoughness" : {"baseColorFactor" : [1, 1, 1, 1], "baseColorTexture" : {"index" : 1, "texCoord" : 0}, "metallicFactor" : 1, "roughnessFactor" : 1}, "normalTexture" : {"index" : 0, "texCoord" : 0, "scale" : 1}, "emissiveFactor" : [0, 0, 0], "alphaMode" : "OPAQUE", "doubleSided" : false}], "meshes" : [{"primitives" : [{"attributes" : {"POSITION" : 1, "NORMAL" : 2, "TEXCOORD_0" : 3}, "indices" : 0, "material" : 0, "mode" : 4}], "name" : "Cube.006"}], "nodes" : [{"matrix" : [7.549789954891861E-06, -99.99999999999953, -5.960465188081794E-06, 0, -1.629206840526685E-05, 5.960463958064788E-06, -99.9999999999985, 0, 99.99999999999838, 7.549790925974812E-06, -1.6292067955264265E-05, 0, 0, 0, 0, 1], "mesh" : 0, "name" : "Container"}], "samplers" : [{"magFilter" : 9729, "minFilter" : 9729, "wrapS" : 10497, "wrapT" : 10497}, {"magFilter" : 9729, "minFilter" : 9729, "wrapS" : 10497, "wrapT" : 10497}], "scene" : 0, "scenes" : [{"nodes" : [0]}], "textures" : [{"sampler" : 0, "source" : 0, "name" : "normalmap_texture"}, {"sampler" : 1, "source" : 1, "name" : "base_color_texture"}]}